<svg width="4096" height="2160" viewBox="0 0 4096 2160" fill="none" xmlns="http://www.w3.org/2000/svg">
<path d="M2623.25 776.58C2486.76 647.22 2271.95 668.58 2271.95 668.58L2010.25 661.49H2009.74H2009.24L1747.58 668.58C1747.58 668.58 1532.77 647.22 1396.28 776.58C1396.28 776.58 1130.9 1360.35 1150.28 1591.92C1150.28 1591.92 1141.15 1780.53 1321.54 1823.5C1321.54 1823.5 1417.28 1767.57 1563.65 1570.56C1563.65 1570.56 1631.65 1477.2 1740.88 1485.9L2009.27 1486.69H2010.27L2278.66 1485.9C2387.84 1477.2 2455.89 1570.56 2455.89 1570.56C2602.26 1767.56 2698 1823.5 2698 1823.5C2878.39 1780.5 2869.26 1591.92 2869.26 1591.92C2888.6 1360.35 2623.25 776.58 2623.25 776.58Z" stroke="black" stroke-width="7" stroke-miterlimit="10"/>
<path d="M2320.56 921.54L2337.25 947.32L2353.88 921.54H2367.96L2344.05 956.7L2367.25 990.88H2353.17L2337.25 966.07L2321.25 990.88H2307.07L2330.23 956.7L2306.32 921.54H2320.56Z" fill="black"/>
<path d="M2435.4 809.7L2451.94 843.1L2468.76 809.7H2482.84L2458.46 854.82V879H2445.51V854.62L2421.25 809.7H2435.4Z" fill="black"/>
<path d="M2446.25 1034.07H2458.34L2485.1 1106.8H2471.03L2464.49 1088.67H2439.9L2433.46 1106.8H2419.38L2446.25 1034.07ZM2462.01 1078.74L2452.29 1050.16L2442.25 1078.74H2462.01Z" fill="black"/>
<path d="M2597.17 974.14C2597.23 976.926 2596.67 979.69 2595.52 982.23C2594.46 984.497 2592.9 986.494 2590.96 988.07C2588.97 989.679 2586.69 990.897 2584.25 991.66C2581.62 992.494 2578.88 992.909 2576.12 992.89H2544.59V920.16H2579.52C2581.68 920.131 2583.81 920.694 2585.68 921.79C2587.51 922.881 2589.11 924.329 2590.37 926.05C2591.69 927.853 2592.7 929.86 2593.37 931.99C2594.05 934.162 2594.38 936.425 2594.37 938.7C2594.4 942.178 2593.58 945.61 2591.98 948.7C2590.48 951.72 2588.02 954.154 2584.98 955.62C2588.6 956.762 2591.72 959.091 2593.85 962.23C2596.15 965.768 2597.31 969.924 2597.17 974.14ZM2557.25 932.24V950.58H2574.16C2575.2 950.591 2576.22 950.376 2577.17 949.951C2578.11 949.527 2578.95 948.902 2579.63 948.12C2581.22 946.237 2582.02 943.818 2581.88 941.36C2582.01 938.963 2581.28 936.6 2579.81 934.7C2579.2 933.927 2578.43 933.304 2577.55 932.877C2576.66 932.451 2575.69 932.233 2574.71 932.24H2557.25ZM2584.36 971.48C2584.37 970.209 2584.16 968.946 2583.76 967.74C2583.4 966.615 2582.86 965.557 2582.16 964.61C2581.51 963.757 2580.7 963.043 2579.77 962.51C2578.85 962.005 2577.82 961.743 2576.77 961.75H2557.25V980.9H2576.09C2577.22 980.908 2578.33 980.662 2579.35 980.18C2580.36 979.709 2581.25 979.027 2581.97 978.18C2582.73 977.293 2583.32 976.277 2583.72 975.18C2584.16 973.997 2584.39 972.744 2584.39 971.48H2584.36Z" fill="black"/>
<path d="M2337.2 1013.97C2369.1 1013.97 2394.96 988.11 2394.96 956.21C2394.96 924.31 2369.1 898.45 2337.2 898.45C2305.3 898.45 2279.44 924.31 2279.44 956.21C2279.44 988.11 2305.3 1013.97 2337.2 1013.97Z" stroke="black" stroke-width="7" stroke-miterlimit="10"/>
<path d="M2566.88 1014.28C2598.78 1014.28 2624.64 988.42 2624.64 956.52C2624.64 924.62 2598.78 898.76 2566.88 898.76C2534.98 898.76 2509.12 924.62 2509.12 956.52C2509.12 988.42 2534.98 1014.28 2566.88 1014.28Z" stroke="black" stroke-width="7" stroke-miterlimit="10"/>
<path d="M2452.04 1128.81C2483.94 1128.81 2509.8 1102.95 2509.8 1071.05C2509.8 1039.15 2483.94 1013.29 2452.04 1013.29C2420.14 1013.29 2394.28 1039.15 2394.28 1071.05C2394.28 1102.95 2420.14 1128.81 2452.04 1128.81Z" stroke="black" stroke-width="7" stroke-miterlimit="10"/>
<path d="M2452.04 899.13C2483.94 899.13 2509.8 873.27 2509.8 841.37C2509.8 809.47 2483.94 783.61 2452.04 783.61C2420.14 783.61 2394.28 809.47 2394.28 841.37C2394.28 873.27 2420.14 899.13 2452.04 899.13Z" stroke="black" stroke-width="7" stroke-miterlimit="10"/>
<path d="M2237.13 1282.82C2272.38 1282.82 2300.95 1254.25 2300.95 1219C2300.95 1183.75 2272.38 1155.18 2237.13 1155.18C2201.88 1155.18 2173.31 1183.75 2173.31 1219C2173.31 1254.25 2201.88 1282.82 2237.13 1282.82Z" stroke="black" stroke-width="7" stroke-miterlimit="10"/>
<path d="M2237.13 1313.87C2289.53 1313.87 2332 1271.4 2332 1219C2332 1166.6 2289.53 1124.13 2237.13 1124.13C2184.73 1124.13 2142.26 1166.6 2142.26 1219C2142.26 1271.4 2184.73 1313.87 2237.13 1313.87Z" stroke="black" stroke-width="7" stroke-miterlimit="10"/>
<path d="M1777.66 1377.5C1854.99 1377.5 1917.68 1314.81 1917.68 1237.48C1917.68 1160.15 1854.99 1097.46 1777.66 1097.46C1700.33 1097.46 1637.64 1160.15 1637.64 1237.48C1637.64 1314.81 1700.33 1377.5 1777.66 1377.5Z" stroke="black" stroke-width="7" stroke-miterlimit="10"/>
<path d="M1563.51 1025.68C1598.76 1025.68 1627.33 997.107 1627.33 961.86C1627.33 926.613 1598.76 898.04 1563.51 898.04C1528.26 898.04 1499.69 926.613 1499.69 961.86C1499.69 997.107 1528.26 1025.68 1563.51 1025.68Z" stroke="black" stroke-width="7" stroke-miterlimit="10"/>
<path d="M1883.16 994.18C1905.27 994.18 1923.19 976.258 1923.19 954.15C1923.19 932.042 1905.27 914.12 1883.16 914.12C1861.05 914.12 1843.13 932.042 1843.13 954.15C1843.13 976.258 1861.05 994.18 1883.16 994.18Z" stroke="black" stroke-width="7" stroke-miterlimit="10"/>
<path d="M2134.28 994.18C2156.39 994.18 2174.31 976.258 2174.31 954.15C2174.31 932.042 2156.39 914.12 2134.28 914.12C2112.17 914.12 2094.25 932.042 2094.25 954.15C2094.25 976.258 2112.17 994.18 2134.28 994.18Z" stroke="black" stroke-width="7" stroke-miterlimit="10"/>
<path d="M1563.51 1056.73C1615.91 1056.73 1658.38 1014.26 1658.38 961.86C1658.38 909.465 1615.91 866.99 1563.51 866.99C1511.11 866.99 1468.64 909.465 1468.64 961.86C1468.64 1014.26 1511.11 1056.73 1563.51 1056.73Z" stroke="black" stroke-width="7" stroke-miterlimit="10"/>
<path d="M1901.74 1199.79C1901.74 1199.79 1898.74 1192.47 1888.89 1191.88H1823.89V1126.88C1823.29 1116.99 1815.98 1114.02 1815.98 1114.02C1808.86 1109.87 1778.98 1109.87 1778.98 1109.87C1778.98 1109.87 1747.13 1109.87 1739.98 1114.02C1739.98 1114.02 1732.66 1117.02 1732.07 1126.88V1191.88H1667.07C1657.18 1192.47 1654.21 1199.79 1654.21 1199.79C1650.06 1206.91 1650.06 1236.79 1650.06 1236.79C1650.06 1236.79 1650.06 1268.64 1654.21 1275.79C1654.21 1275.79 1657.21 1283.1 1667.07 1283.7H1732.07V1348.7C1732.66 1358.59 1739.98 1361.55 1739.98 1361.55C1747.1 1365.71 1776.98 1365.71 1776.98 1365.71C1776.98 1365.71 1808.83 1365.71 1815.98 1361.55C1815.98 1361.55 1823.29 1358.55 1823.89 1348.7V1283.7H1888.89C1898.78 1283.1 1901.74 1275.79 1901.74 1275.79C1905.9 1268.67 1905.9 1238.79 1905.9 1238.79C1905.9 1238.79 1905.9 1206.91 1901.74 1199.79Z" stroke="black" stroke-width="7" stroke-miterlimit="10"/>
<path d="M2009.75 848.19C2046.02 848.19 2075.42 818.789 2075.42 782.52C2075.42 746.251 2046.02 716.85 2009.75 716.85C1973.48 716.85 1944.08 746.251 1944.08 782.52C1944.08 818.789 1973.48 848.19 2009.75 848.19Z" stroke="black" stroke-width="7" stroke-miterlimit="10"/>
<path d="M1404.25 769.26C1404.25 769.26 1447.57 631.67 1681.25 628.5C1681.25 628.5 1698.66 631 1703.8 635.15C1703.8 635.15 1734.1 665.33 1752.87 668.44C1752.9 668.44 1543.48 645.75 1404.25 769.26Z" stroke="black" stroke-width="7" stroke-miterlimit="10"/>
<path d="M2614.46 769.26C2614.46 769.26 2571.14 631.67 2337.46 628.5C2337.46 628.5 2320.06 631 2314.91 635.15C2314.91 635.15 2284.62 665.33 2265.84 668.44C2265.85 668.44 2475.25 645.75 2614.46 769.26Z" stroke="black" stroke-width="7" stroke-miterlimit="10"/>
<path d="M2057.81 805.87C2054.09 794.29 2041.65 772.75 2030.23 758.1L2026.64 753.49L2030.53 749.84C2034.33 746.115 2038.49 742.766 2042.94 739.84C2045.52 738.188 2048.36 736.994 2051.34 736.31C2047.68 732.827 2043.61 729.804 2039.22 727.31H2038.67C2032.67 727 2023.89 729.48 2014.48 734.16C2012.7 735.103 2010.87 735.938 2008.99 736.66C2008.81 736.66 2006.5 735.48 2003.85 734.1C1998.58 731.37 1990.45 728.44 1985.96 727.65C1983.97 727.352 1981.97 727.238 1979.96 727.31H1978.89C1974.5 729.806 1970.43 732.829 1966.77 736.31C1967.9 736.392 1969.01 736.662 1970.05 737.11C1974.72 738.71 1979.71 742.23 1987.44 749.36L1991.96 753.53L1989.49 756.62C1978.05 770.96 1965.97 791.28 1961.42 803.86C1959.16 810.12 1958.13 816.4 1958.79 819.61C1961.11 822.879 1963.73 825.92 1966.63 828.69C1966.32 827.796 1966.18 826.855 1966.2 825.91C1966.2 818.16 1974.55 804.6 1988.83 789.13C1996.94 780.35 2008.24 770.06 2009.46 770.33C2011.83 770.88 2030.82 789.77 2037.93 798.67C2048.24 811.57 2053.44 822.33 2052.2 827.98C2054.98 825.222 2057.5 822.209 2059.72 818.98C2060.25 816.06 2059.46 811 2057.81 805.87Z" stroke="black" stroke-width="7" stroke-miterlimit="10"/>
<path d="M2113.22 953.76H2155.34" stroke="black" stroke-width="5" stroke-miterlimit="10"/>
<path d="M2113.22 942.43H2155.34" stroke="black" stroke-width="5" stroke-miterlimit="10"/>
<path d="M2113.22 965.09H2155.34" stroke="black" stroke-width="5" stroke-miterlimit="10"/>
<path d="M1900.44 951.21H1879.22V967.5H1900.44V951.21Z" stroke="black" stroke-width="5" stroke-miterlimit="10"/>
<path d="M1872.21 953.76H1865.58V936.43H1887.18V942.55" stroke="black" stroke-width="5" stroke-miterlimit="10"/>
<path d="M2529.75 628.5L2700.56 457.69H2933.78" stroke="black" stroke-width="7" stroke-miterlimit="10"/>
<path d="M1489.48 628.5L1316.94 455.96H1083.72" stroke="black" stroke-width="7" stroke-miterlimit="10"/>
<path d="M2665.25 947.81L2758.25 879H3128.34" stroke="black" stroke-width="7" stroke-miterlimit="10"/>
<path d="M2337.25 1314L2767.29 1706H3109.25" stroke="black" stroke-width="7.04864" stroke-miterlimit="10"/>
<path d="M1637.64 1369.91L1430.86 1576.69H892.82" stroke="black" stroke-width="7" stroke-miterlimit="10"/>
<path d="M1468.25 1022L1376.34 1113.91H1006.25" stroke="black" stroke-width="7" stroke-miterlimit="10"/>
<path d="M2134.28 879.04V610.92L2293.06 452.14" stroke="black" stroke-width="7" stroke-miterlimit="10"/>
<path d="M1887.89 879.04V610.92L1729.11 452.14" stroke="black" stroke-width="7" stroke-miterlimit="10"/>
</svg>
